<svg xmlns="http://www.w3.org/2000/svg" xmlns:xlink="http://www.w3.org/1999/xlink" width="1142" height="908" viewbox="0 0 1142 908"><path transform="translate(-265.7750361464791 54.80901783660771) scale(1) translate(734.8942288041329 700.9561766195152) rotate(105.82427854056881)" d="M 29.432583167232284 -9.732576642593404 L 43.7819318914119 -14.477526667396498 A 40 40 0 0 1 56.340095301209836 -16.5 L 62 -16.5 L 107.5 -16.5 A 16.5 16.5 0 0 1 124 -3.552713678800501e-15 L 124 0 L 124 3.552713678800501e-15 A 16.5 16.5 0 0 1 107.5 16.5 L 62 16.5 L 56.34009530120984 16.5 A 40 40 0 0 0 43.781931891411894 14.477526667396496 L 38.40477384240471 12.699442748158168 L 38.40477384240471 12.699442748158168" fill="none" stroke="#999999" stroke-width="1"></path><polygon transform="translate(-265.7750361464791 54.80901783660771) scale(1) translate(734.8942288041329 700.9561766195152) rotate(105.82427854056881) rotate(198.29768442514566) translate(-31 0)" points="-9.45,0 -10.5,3.5 0,0 -10.5,-3.5" fill="#999999" stroke="none" stroke-width="1"></polygon><rect transform="translate(-265.7750361464791 54.80901783660771) scale(1) translate(705.5802738255757 804.3821987005907) rotate(15.824278540568807) translate(0 -7) translate(0 0) translate(-35.15185546875 0)" x="0" y="0" width="70.3037109375" height="14" rx="2" ry="2" fill="#ffffff" stroke="none"></rect><text xml:space="preserve" transform="translate(-265.7750361464791 54.80901783660771) scale(1) translate(705.5802738255757 804.3821987005907) rotate(15.824278540568807) translate(0 -7) translate(0 0) translate(-35.15185546875 0)" x="2" y="9.5" font-family="sans-serif" font-size="10" font-weight="normal" text-anchor="left" fill="#000000">DATA_FLOWS</text><path transform="translate(-265.7750361464791 54.80901783660771) scale(1) translate(386.36098059983703 455.8784348924188) rotate(-176.1645484300774)" d="M 30.48076945658987 -9.74282778941608 L 45.67960767877214 -14.600961820737334 A 40 40 0 0 1 57.85814241554224 -16.5 L 64 -16.5 L 111.5 -16.5 A 16.5 16.5 0 0 1 128 -3.552713678800501e-15 L 128 0 L 128 3.552713678800501e-15 A 16.5 16.5 0 0 1 111.5 16.5 L 64 16.5 L 57.85814241554225 16.5 A 40 40 0 0 0 45.67960767877213 14.600961820737332 L 39.48212168673907 12.620006620978016 L 39.48212168673907 12.620006620978016" fill="none" stroke="#999999" stroke-width="1"></path><polygon transform="translate(-265.7750361464791 54.80901783660771) scale(1) translate(386.36098059983703 455.8784348924188) rotate(-176.1645484300774) rotate(197.72588178685984) translate(-32 0)" points="-9.45,0 -10.5,3.5 0,0 -10.5,-3.5" fill="#999999" stroke="none" stroke-width="1"></polygon><rect transform="translate(-265.7750361464791 54.80901783660771) scale(1) translate(275.1107104346318 448.4200578458455) rotate(-86.1645484300774) translate(0 -7) translate(0 0) translate(-35.15185546875 0)" x="0" y="0" width="70.3037109375" height="14" rx="2" ry="2" fill="#ffffff" stroke="none"></rect><text xml:space="preserve" transform="translate(-265.7750361464791 54.80901783660771) scale(1) translate(275.1107104346318 448.4200578458455) rotate(-86.1645484300774) translate(0 -7) translate(0 0) translate(-35.15185546875 0)" x="2" y="9.5" font-family="sans-serif" font-size="10" font-weight="normal" text-anchor="left" fill="#000000">DATA_FLOWS</text><path transform="translate(-265.7750361464791 54.80901783660771) scale(1) translate(734.8942288041329 700.9561766195152) rotate(-144.88630558585612)" d="M 29.432583167232284 -9.732576642593404 L 43.7819318914119 -14.477526667396498 A 40 40 0 0 1 56.340095301209836 -16.5 L 213.03668967685513 -16.5 L 368.215236938168 -16.5 A 40 40 0 0 1 380.3937716749381 -14.600961820737345 L 386.5912576669712 -12.620006620978016 L 386.5912576669712 -12.620006620978016" fill="none" stroke="#999999" stroke-width="1"></path><polygon transform="translate(-265.7750361464791 54.80901783660771) scale(1) translate(734.8942288041329 700.9561766195152) rotate(-144.88630558585612) translate(426.07337935371027 0) rotate(17.725881786859844) translate(-32 0)" points="-9.45,0 -10.5,3.5 0,0 -10.5,-3.5" fill="#999999" stroke="none" stroke-width="1"></polygon><rect transform="translate(-265.7750361464791 54.80901783660771) scale(1) translate(551.5457979008551 592.2021084468636) rotate(35.11369441414387) translate(0 -7) translate(0 0) translate(-35.15185546875 0)" x="0" y="0" width="70.3037109375" height="14" rx="2" ry="2" fill="#ffffff" stroke="none"></rect><text xml:space="preserve" transform="translate(-265.7750361464791 54.80901783660771) scale(1) translate(551.5457979008551 592.2021084468636) rotate(35.11369441414387) translate(0 -7) translate(0 0) translate(-35.15185546875 0)" x="2" y="9.5" font-family="sans-serif" font-size="10" font-weight="normal" text-anchor="left" fill="#000000">DATA_FLOWS</text><path transform="translate(-265.7750361464791 54.80901783660771) scale(1) translate(386.36098059983703 455.8784348924188) rotate(35.11369441414387)" d="M 30.48076945658987 -9.74282778941608 L 45.67960767877214 -14.600961820737334 A 40 40 0 0 1 57.85814241554224 -16.5 L 213.03668967685513 -16.5 L 369.73328405250044 -16.5 A 40 40 0 0 1 382.2914474622984 -14.477526667396496 L 387.66860551130554 -12.699442748158168 L 387.66860551130554 -12.699442748158168" fill="none" stroke="#999999" stroke-width="1"></path><polygon transform="translate(-265.7750361464791 54.80901783660771) scale(1) translate(386.36098059983703 455.8784348924188) rotate(35.11369441414387) translate(426.07337935371027 0) rotate(18.297684425145647) translate(-31 0)" points="-9.45,0 -10.5,3.5 0,0 -10.5,-3.5" fill="#999999" stroke="none" stroke-width="1"></polygon><rect transform="translate(-265.7750361464791 54.80901783660771) scale(1) translate(570.5274237636626 565.2077038487919) rotate(35.11369441414387) translate(0 -7) translate(0 0) translate(-35.15185546875 0)" x="0" y="0" width="70.3037109375" height="14" rx="2" ry="2" fill="#ffffff" stroke="none"></rect><text xml:space="preserve" transform="translate(-265.7750361464791 54.80901783660771) scale(1) translate(570.5274237636626 565.2077038487919) rotate(35.11369441414387) translate(0 -7) translate(0 0) translate(-35.15185546875 0)" x="2" y="9.5" font-family="sans-serif" font-size="10" font-weight="normal" text-anchor="left" fill="#000000">DATA_FLOWS</text><path transform="translate(-265.7750361464791 54.80901783660771) scale(1) translate(1134.810212556712 67.20975879078088) rotate(-64.29194752731473)" d="M 30.48076945658987 -9.74282778941608 L 45.67960767877214 -14.600961820737334 A 40 40 0 0 1 57.85814241554224 -16.5 L 64 -16.5 L 111.5 -16.5 A 16.5 16.5 0 0 1 128 -3.552713678800501e-15 L 128 0 L 128 3.552713678800501e-15 A 16.5 16.5 0 0 1 111.5 16.5 L 64 16.5 L 57.85814241554225 16.5 A 40 40 0 0 0 45.67960767877213 14.600961820737332 L 39.48212168673907 12.620006620978016 L 39.48212168673907 12.620006620978016" fill="none" stroke="#999999" stroke-width="1"></path><polygon transform="translate(-265.7750361464791 54.80901783660771) scale(1) translate(1134.810212556712 67.20975879078088) rotate(-64.29194752731473) rotate(197.72588178685984) translate(-32 0)" points="-9.45,0 -10.5,3.5 0,0 -10.5,-3.5" fill="#999999" stroke="none" stroke-width="1"></polygon><rect transform="translate(-265.7750361464791 54.80901783660771) scale(1) translate(1183.177320293935 -33.25353246097866) rotate(25.708052472685267) translate(0 -7) translate(0 0) translate(-35.15185546875 0)" x="0" y="0" width="70.3037109375" height="14" rx="2" ry="2" fill="#ffffff" stroke="none"></rect><text xml:space="preserve" transform="translate(-265.7750361464791 54.80901783660771) scale(1) translate(1183.177320293935 -33.25353246097866) rotate(25.708052472685267) translate(0 -7) translate(0 0) translate(-35.15185546875 0)" x="2" y="9.5" font-family="sans-serif" font-size="10" font-weight="normal" text-anchor="left" fill="#000000">DATA_FLOWS</text><path transform="translate(-265.7750361464791 54.80901783660771) scale(1) translate(1134.810212556712 67.20975879078088) rotate(152.55720872570134)" d="M 30.48076945658987 -9.74282778941608 L 45.67960767877214 -14.600961820737334 A 40 40 0 0 1 57.85814241554224 -16.5 L 421.6751097110891 -16.5 L 785.4920770066359 -16.5 A 40 40 0 0 1 797.670611743406 -14.600961820737345 L 803.868097735439 -12.620006620978016 L 803.868097735439 -12.620006620978016" fill="none" stroke="#999999" stroke-width="1"></path><polygon transform="translate(-265.7750361464791 54.80901783660771) scale(1) translate(1134.810212556712 67.20975879078088) rotate(152.55720872570134) translate(843.3502194221782 0) rotate(17.725881786859844) translate(-32 0)" points="-9.45,0 -10.5,3.5 0,0 -10.5,-3.5" fill="#999999" stroke="none" stroke-width="1"></polygon><rect transform="translate(-265.7750361464791 54.80901783660771) scale(1) translate(768.1898314595685 276.187375568378) rotate(332.55720872570134) translate(0 -7) translate(0 0) translate(-35.15185546875 0)" x="0" y="0" width="70.3037109375" height="14" rx="2" ry="2" fill="#ffffff" stroke="none"></rect><text xml:space="preserve" transform="translate(-265.7750361464791 54.80901783660771) scale(1) translate(768.1898314595685 276.187375568378) rotate(332.55720872570134) translate(0 -7) translate(0 0) translate(-35.15185546875 0)" x="2" y="9.5" font-family="sans-serif" font-size="10" font-weight="normal" text-anchor="left" fill="#000000">DATA_FLOWS</text><path transform="translate(-265.7750361464791 54.80901783660771) scale(1) translate(386.36098059983703 455.8784348924188) rotate(-27.442791274298663)" d="M 30.48076945658987 -9.74282778941608 L 45.67960767877214 -14.600961820737334 A 40 40 0 0 1 57.85814241554224 -16.5 L 421.6751097110891 -16.5 L 785.4920770066359 -16.5 A 40 40 0 0 1 797.670611743406 -14.600961820737345 L 803.868097735439 -12.620006620978016 L 803.868097735439 -12.620006620978016" fill="none" stroke="#999999" stroke-width="1"></path><polygon transform="translate(-265.7750361464791 54.80901783660771) scale(1) translate(386.36098059983703 455.8784348924188) rotate(-27.442791274298663) translate(843.3502194221782 0) rotate(17.725881786859844) translate(-32 0)" points="-9.45,0 -10.5,3.5 0,0 -10.5,-3.5" fill="#999999" stroke="none" stroke-width="1"></polygon><rect transform="translate(-265.7750361464791 54.80901783660771) scale(1) translate(752.9813616969806 246.90081811482173) rotate(-27.442791274298663) translate(0 -7) translate(0 0) translate(-35.15185546875 0)" x="0" y="0" width="70.3037109375" height="14" rx="2" ry="2" fill="#ffffff" stroke="none"></rect><text xml:space="preserve" transform="translate(-265.7750361464791 54.80901783660771) scale(1) translate(752.9813616969806 246.90081811482173) rotate(-27.442791274298663) translate(0 -7) translate(0 0) translate(-35.15185546875 0)" x="2" y="9.5" font-family="sans-serif" font-size="10" font-weight="normal" text-anchor="left" fill="#000000">DATA_FLOWS</text><path transform="translate(-265.7750361464791 54.80901783660771) scale(1) translate(734.8942288041329 700.9561766195152) rotate(-57.746652231535954)" d="M 29.432583167232284 -9.732576642593404 L 43.7819318914119 -14.477526667396498 A 40 40 0 0 1 56.340095301209836 -16.5 L 374.68897640961694 -16.5 L 691.5198104036916 -16.5 A 40 40 0 0 1 703.6983451404617 -14.600961820737345 L 709.8958311324948 -12.620006620978016 L 709.8958311324948 -12.620006620978016" fill="none" stroke="#999999" stroke-width="1"></path><polygon transform="translate(-265.7750361464791 54.80901783660771) scale(1) translate(734.8942288041329 700.9561766195152) rotate(-57.746652231535954) translate(749.3779528192339 0) rotate(17.725881786859844) translate(-32 0)" points="-9.45,0 -10.5,3.5 0,0 -10.5,-3.5" fill="#999999" stroke="none" stroke-width="1"></polygon><rect transform="translate(-265.7750361464791 54.80901783660771) scale(1) translate(920.631394132272 375.7003611721286) rotate(-57.746652231535954) translate(0 -7) translate(0 0) translate(-35.15185546875 0)" x="0" y="0" width="70.3037109375" height="14" rx="2" ry="2" fill="#ffffff" stroke="none"></rect><text xml:space="preserve" transform="translate(-265.7750361464791 54.80901783660771) scale(1) translate(920.631394132272 375.7003611721286) rotate(-57.746652231535954) translate(0 -7) translate(0 0) translate(-35.15185546875 0)" x="2" y="9.5" font-family="sans-serif" font-size="10" font-weight="normal" text-anchor="left" fill="#000000">DATA_FLOWS</text><path transform="translate(-265.7750361464791 54.80901783660771) scale(1) translate(1134.810212556712 67.20975879078088) rotate(122.25334776846405)" d="M 30.48076945658987 -9.74282778941608 L 45.67960767877214 -14.600961820737334 A 40 40 0 0 1 57.85814241554224 -16.5 L 374.68897640961694 -16.5 L 693.037857518024 -16.5 A 40 40 0 0 1 705.5960209278218 -14.477526667396553 L 710.9731789768292 -12.699442748158168 L 710.9731789768292 -12.699442748158168" fill="none" stroke="#999999" stroke-width="1"></path><polygon transform="translate(-265.7750361464791 54.80901783660771) scale(1) translate(1134.810212556712 67.20975879078088) rotate(122.25334776846405) translate(749.3779528192339 0) rotate(18.297684425145647) translate(-31 0)" points="-9.45,0 -10.5,3.5 0,0 -10.5,-3.5" fill="#999999" stroke="none" stroke-width="1"></polygon><rect transform="translate(-265.7750361464791 54.80901783660771) scale(1) translate(948.539383298045 393.31127087955457) rotate(302.25334776846404) translate(0 -7) translate(0 0) translate(-35.15185546875 0)" x="0" y="0" width="70.3037109375" height="14" rx="2" ry="2" fill="#ffffff" stroke="none"></rect><text xml:space="preserve" transform="translate(-265.7750361464791 54.80901783660771) scale(1) translate(948.539383298045 393.31127087955457) rotate(302.25334776846404) translate(0 -7) translate(0 0) translate(-35.15185546875 0)" x="2" y="9.5" font-family="sans-serif" font-size="10" font-weight="normal" text-anchor="left" fill="#000000">DATA_FLOWS</text><path transform="translate(-265.7750361464791 54.80901783660771) scale(1) translate(1161.1990928750552 552.3048780764647) rotate(160.77648127550717)" d="M 30.48076945658987 -9.74282778941608 L 45.67960767877214 -14.600961820737334 A 40 40 0 0 1 57.85814241554224 -16.5 L 225.73936613330352 -16.5 L 395.1386369653972 -16.5 A 40 40 0 0 1 407.69680037519515 -14.477526667396496 L 413.0739584242023 -12.699442748158168 L 413.0739584242023 -12.699442748158168" fill="none" stroke="#999999" stroke-width="1"></path><polygon transform="translate(-265.7750361464791 54.80901783660771) scale(1) translate(1161.1990928750552 552.3048780764647) rotate(160.77648127550717) translate(451.47873226660704 0) rotate(18.297684425145647) translate(-31 0)" points="-9.45,0 -10.5,3.5 0,0 -10.5,-3.5" fill="#999999" stroke="none" stroke-width="1"></polygon><rect transform="translate(-265.7750361464791 54.80901783660771) scale(1) translate(953.00723557737 642.3751358941222) rotate(340.77648127550714) translate(0 -7) translate(0 0) translate(-35.15185546875 0)" x="0" y="0" width="70.3037109375" height="14" rx="2" ry="2" fill="#ffffff" stroke="none"></rect><text xml:space="preserve" transform="translate(-265.7750361464791 54.80901783660771) scale(1) translate(953.00723557737 642.3751358941222) rotate(340.77648127550714) translate(0 -7) translate(0 0) translate(-35.15185546875 0)" x="2" y="9.5" font-family="sans-serif" font-size="10" font-weight="normal" text-anchor="left" fill="#000000">DATA_FLOWS</text><path transform="translate(-265.7750361464791 54.80901783660771) scale(1) translate(734.8942288041329 700.9561766195152) rotate(-19.223518724492813)" d="M 29.432583167232284 -9.732576642593404 L 43.7819318914119 -14.477526667396498 A 40 40 0 0 1 56.340095301209836 -16.5 L 225.73936613330352 -16.5 L 393.6205898510648 -16.5 A 40 40 0 0 1 405.79912458783485 -14.600961820737345 L 411.996610579868 -12.620006620978016 L 411.996610579868 -12.620006620978016" fill="none" stroke="#999999" stroke-width="1"></path><polygon transform="translate(-265.7750361464791 54.80901783660771) scale(1) translate(734.8942288041329 700.9561766195152) rotate(-19.223518724492813) translate(451.47873226660704 0) rotate(17.725881786859844) translate(-32 0)" points="-9.45,0 -10.5,3.5 0,0 -10.5,-3.5" fill="#999999" stroke="none" stroke-width="1"></polygon><rect transform="translate(-265.7750361464791 54.80901783660771) scale(1) translate(942.1418448040481 611.215173067716) rotate(-19.223518724492813) translate(0 -7) translate(0 0) translate(-35.15185546875 0)" x="0" y="0" width="70.3037109375" height="14" rx="2" ry="2" fill="#ffffff" stroke="none"></rect><text xml:space="preserve" transform="translate(-265.7750361464791 54.80901783660771) scale(1) translate(942.1418448040481 611.215173067716) rotate(-19.223518724492813) translate(0 -7) translate(0 0) translate(-35.15185546875 0)" x="2" y="9.5" font-family="sans-serif" font-size="10" font-weight="normal" text-anchor="left" fill="#000000">DATA_FLOWS</text><path transform="translate(-265.7750361464791 54.80901783660771) scale(1) translate(1161.1990928750552 552.3048780764647) rotate(-93.11378654377705)" d="M 30.48076945658987 -9.74282778941608 L 45.67960767877214 -14.600961820737334 A 40 40 0 0 1 57.85814241554224 -16.5 L 242.9061792952413 -16.5 L 427.9542161749403 -16.5 A 40 40 0 0 1 440.1327509117104 -14.600961820737345 L 446.3302369037435 -12.620006620978016 L 446.3302369037435 -12.620006620978016" fill="none" stroke="#999999" stroke-width="1"></path><polygon transform="translate(-265.7750361464791 54.80901783660771) scale(1) translate(1161.1990928750552 552.3048780764647) rotate(-93.11378654377705) translate(485.8123585904826 0) rotate(17.725881786859844) translate(-32 0)" points="-9.45,0 -10.5,3.5 0,0 -10.5,-3.5" fill="#999999" stroke="none" stroke-width="1"></polygon><rect transform="translate(-265.7750361464791 54.80901783660771) scale(1) translate(1131.529012838305 310.65358325182535) rotate(86.88621345622295) translate(0 -7) translate(0 0) translate(-35.15185546875 0)" x="0" y="0" width="70.3037109375" height="14" rx="2" ry="2" fill="#ffffff" stroke="none"></rect><text xml:space="preserve" transform="translate(-265.7750361464791 54.80901783660771) scale(1) translate(1131.529012838305 310.65358325182535) rotate(86.88621345622295) translate(0 -7) translate(0 0) translate(-35.15185546875 0)" x="2" y="9.5" font-family="sans-serif" font-size="10" font-weight="normal" text-anchor="left" fill="#000000">DATA_FLOWS</text><path transform="translate(-265.7750361464791 54.80901783660771) scale(1) translate(1134.810212556712 67.20975879078088) rotate(86.88621345622296)" d="M 30.48076945658987 -9.74282778941608 L 45.67960767877214 -14.600961820737334 A 40 40 0 0 1 57.85814241554224 -16.5 L 242.9061792952413 -16.5 L 427.9542161749403 -16.5 A 40 40 0 0 1 440.1327509117104 -14.600961820737345 L 446.3302369037435 -12.620006620978016 L 446.3302369037435 -12.620006620978016" fill="none" stroke="#999999" stroke-width="1"></path><polygon transform="translate(-265.7750361464791 54.80901783660771) scale(1) translate(1134.810212556712 67.20975879078088) rotate(86.88621345622296) translate(485.8123585904826 0) rotate(17.725881786859844) translate(-32 0)" points="-9.45,0 -10.5,3.5 0,0 -10.5,-3.5" fill="#999999" stroke="none" stroke-width="1"></polygon><rect transform="translate(-265.7750361464791 54.80901783660771) scale(1) translate(1164.480292593462 308.8610536154202) rotate(86.88621345622296) translate(0 -7) translate(0 0) translate(-35.15185546875 0)" x="0" y="0" width="70.3037109375" height="14" rx="2" ry="2" fill="#ffffff" stroke="none"></rect><text xml:space="preserve" transform="translate(-265.7750361464791 54.80901783660771) scale(1) translate(1164.480292593462 308.8610536154202) rotate(86.88621345622296) translate(0 -7) translate(0 0) translate(-35.15185546875 0)" x="2" y="9.5" font-family="sans-serif" font-size="10" font-weight="normal" text-anchor="left" fill="#000000">DATA_FLOWS</text><path transform="translate(-265.7750361464791 54.80901783660771) scale(1) translate(1061.298167443037 451.4204664921367) rotate(142.60209874064154)" d="M 30.48076945658987 -9.74282778941608 L 45.67960767877214 -14.600961820737334 A 40 40 0 0 1 57.85814241554224 -16.5 L 205.4310114051458 -16.5 L 354.52192750908176 -16.5 A 40 40 0 0 1 367.0800909188797 -14.477526667396496 L 372.45724896788687 -12.699442748158168 L 372.45724896788687 -12.699442748158168" fill="none" stroke="#999999" stroke-width="1"></path><polygon transform="translate(-265.7750361464791 54.80901783660771) scale(1) translate(1061.298167443037 451.4204664921367) rotate(142.60209874064154) translate(410.8620228102916 0) rotate(18.297684425145647) translate(-31 0)" points="-9.45,0 -10.5,3.5 0,0 -10.5,-3.5" fill="#999999" stroke="none" stroke-width="1"></polygon><rect transform="translate(-265.7750361464791 54.80901783660771) scale(1) translate(907.7202008988622 589.6002032501094) rotate(322.60209874064157) translate(0 -7) translate(0 0) translate(-35.15185546875 0)" x="0" y="0" width="70.3037109375" height="14" rx="2" ry="2" fill="#ffffff" stroke="none"></rect><text xml:space="preserve" transform="translate(-265.7750361464791 54.80901783660771) scale(1) translate(907.7202008988622 589.6002032501094) rotate(322.60209874064157) translate(0 -7) translate(0 0) translate(-35.15185546875 0)" x="2" y="9.5" font-family="sans-serif" font-size="10" font-weight="normal" text-anchor="left" fill="#000000">DATA_FLOWS</text><path transform="translate(-265.7750361464791 54.80901783660771) scale(1) translate(734.8942288041329 700.9561766195152) rotate(-37.39790125935846)" d="M 29.432583167232284 -9.732576642593404 L 43.7819318914119 -14.477526667396498 A 40 40 0 0 1 56.340095301209836 -16.5 L 205.4310114051458 -16.5 L 353.00388039474933 -16.5 A 40 40 0 0 1 365.1824151315194 -14.600961820737345 L 371.37990112355254 -12.620006620978016 L 371.37990112355254 -12.620006620978016" fill="none" stroke="#999999" stroke-width="1"></path><polygon transform="translate(-265.7750361464791 54.80901783660771) scale(1) translate(734.8942288041329 700.9561766195152) rotate(-37.39790125935846) translate(410.8620228102916 0) rotate(17.725881786859844) translate(-32 0)" points="-9.45,0 -10.5,3.5 0,0 -10.5,-3.5" fill="#999999" stroke="none" stroke-width="1"></polygon><rect transform="translate(-265.7750361464791 54.80901783660771) scale(1) translate(887.6777584801681 563.383786601503) rotate(-37.39790125935846) translate(0 -7) translate(0 0) translate(-35.15185546875 0)" x="0" y="0" width="70.3037109375" height="14" rx="2" ry="2" fill="#ffffff" stroke="none"></rect><text xml:space="preserve" transform="translate(-265.7750361464791 54.80901783660771) scale(1) translate(887.6777584801681 563.383786601503) rotate(-37.39790125935846) translate(0 -7) translate(0 0) translate(-35.15185546875 0)" x="2" y="9.5" font-family="sans-serif" font-size="10" font-weight="normal" text-anchor="left" fill="#000000">DATA_FLOWS</text><path transform="translate(-265.7750361464791 54.80901783660771) scale(1) translate(1061.298167443037 451.4204664921367) rotate(-79.16835723530382)" d="M 30.48076945658987 -9.74282778941608 L 45.67960767877214 -14.600961820737334 A 40 40 0 0 1 57.85814241554224 -16.5 L 195.59006153762752 -16.5 L 333.3219806597128 -16.5 A 40 40 0 0 1 345.50051539648285 -14.600961820737345 L 351.698001388516 -12.620006620978016 L 351.698001388516 -12.620006620978016" fill="none" stroke="#999999" stroke-width="1"></path><polygon transform="translate(-265.7750361464791 54.80901783660771) scale(1) translate(1061.298167443037 451.4204664921367) rotate(-79.16835723530382) translate(391.18012307525504 0) rotate(17.725881786859844) translate(-32 0)" points="-9.45,0 -10.5,3.5 0,0 -10.5,-3.5" fill="#999999" stroke="none" stroke-width="1"></polygon><rect transform="translate(-265.7750361464791 54.80901783660771) scale(1) translate(1081.8481603395874 256.2143703674392) rotate(-79.16835723530382) translate(0 -7) translate(0 0) translate(-35.15185546875 0)" x="0" y="0" width="70.3037109375" height="14" rx="2" ry="2" fill="#ffffff" stroke="none"></rect><text xml:space="preserve" transform="translate(-265.7750361464791 54.80901783660771) scale(1) translate(1081.8481603395874 256.2143703674392) rotate(-79.16835723530382) translate(0 -7) translate(0 0) translate(-35.15185546875 0)" x="2" y="9.5" font-family="sans-serif" font-size="10" font-weight="normal" text-anchor="left" fill="#000000">DATA_FLOWS</text><path transform="translate(-265.7750361464791 54.80901783660771) scale(1) translate(1134.810212556712 67.20975879078088) rotate(100.8316427646962)" d="M 30.48076945658987 -9.74282778941608 L 45.67960767877214 -14.600961820737334 A 40 40 0 0 1 57.85814241554224 -16.5 L 195.59006153762752 -16.5 L 333.3219806597128 -16.5 A 40 40 0 0 1 345.50051539648285 -14.600961820737345 L 351.698001388516 -12.620006620978016 L 351.698001388516 -12.620006620978016" fill="none" stroke="#999999" stroke-width="1"></path><polygon transform="translate(-265.7750361464791 54.80901783660771) scale(1) translate(1134.810212556712 67.20975879078088) rotate(100.8316427646962) translate(391.18012307525504 0) rotate(17.725881786859844) translate(-32 0)" points="-9.45,0 -10.5,3.5 0,0 -10.5,-3.5" fill="#999999" stroke="none" stroke-width="1"></polygon><rect transform="translate(-265.7750361464791 54.80901783660771) scale(1) translate(1114.2602196601617 262.4158549154784) rotate(280.8316427646962) translate(0 -7) translate(0 0) translate(-35.15185546875 0)" x="0" y="0" width="70.3037109375" height="14" rx="2" ry="2" fill="#ffffff" stroke="none"></rect><text xml:space="preserve" transform="translate(-265.7750361464791 54.80901783660771) scale(1) translate(1114.2602196601617 262.4158549154784) rotate(280.8316427646962) translate(0 -7) translate(0 0) translate(-35.15185546875 0)" x="2" y="9.5" font-family="sans-serif" font-size="10" font-weight="normal" text-anchor="left" fill="#000000">DATA_FLOWS</text><path transform="translate(-265.7750361464791 54.80901783660771) scale(1) translate(686.1128037191073 451.4204664921367) rotate(78.9388157541859)" d="M 32 0 L 213.80911598623368 0" fill="none" stroke="#999999" stroke-width="1"></path><polygon transform="translate(-265.7750361464791 54.80901783660771) scale(1) translate(686.1128037191073 451.4204664921367) rotate(78.9388157541859) translate(223.25911598623367 0) rotate(0)" points="-9.45,0 -10.5,3.5 0,0 -10.5,-3.5" fill="undefined" stroke="none" stroke-width="1"></polygon><rect transform="translate(-265.7750361464791 54.80901783660771) scale(1) translate(709.6929198738179 572.0418099501408) rotate(78.9388157541859) translate(0 -7) translate(0 0) translate(-35.15185546875 0)" x="0" y="0" width="70.3037109375" height="14" rx="2" ry="2" fill="#ffffff" stroke="none"></rect><text xml:space="preserve" transform="translate(-265.7750361464791 54.80901783660771) scale(1) translate(709.6929198738179 572.0418099501408) rotate(78.9388157541859) translate(0 -7) translate(0 0) translate(-35.15185546875 0)" x="2" y="9.5" font-family="sans-serif" font-size="10" font-weight="normal" text-anchor="left" fill="#000000">DATA_FLOWS</text><path transform="translate(-265.7750361464791 54.80901783660771) scale(1) translate(686.1128037191073 451.4204664921367) rotate(179.1479486505969)" d="M 32 0 L 258.33497118031823 0" fill="none" stroke="#999999" stroke-width="1"></path><polygon transform="translate(-265.7750361464791 54.80901783660771) scale(1) translate(686.1128037191073 451.4204664921367) rotate(179.1479486505969) translate(267.7849711803182 0) rotate(0)" points="-9.45,0 -10.5,3.5 0,0 -10.5,-3.5" fill="undefined" stroke="none" stroke-width="1"></polygon><rect transform="translate(-265.7750361464791 54.80901783660771) scale(1) translate(540.9613697030334 453.5791873278122) rotate(359.14794865059685) translate(0 -7) translate(0 0) translate(-35.15185546875 0)" x="0" y="0" width="70.3037109375" height="14" rx="2" ry="2" fill="#ffffff" stroke="none"></rect><text xml:space="preserve" transform="translate(-265.7750361464791 54.80901783660771) scale(1) translate(540.9613697030334 453.5791873278122) rotate(359.14794865059685) translate(0 -7) translate(0 0) translate(-35.15185546875 0)" x="2" y="9.5" font-family="sans-serif" font-size="10" font-weight="normal" text-anchor="left" fill="#000000">DATA_FLOWS</text><path transform="translate(-265.7750361464791 54.80901783660771) scale(1) translate(686.1128037191073 451.4204664921367) rotate(-40.57278956121489)" d="M 32 0 L 549.2675573909728 0" fill="none" stroke="#999999" stroke-width="1"></path><polygon transform="translate(-265.7750361464791 54.80901783660771) scale(1) translate(686.1128037191073 451.4204664921367) rotate(-40.57278956121489) translate(558.7175573909728 0) rotate(0)" points="-9.45,0 -10.5,3.5 0,0 -10.5,-3.5" fill="undefined" stroke="none" stroke-width="1"></polygon><rect transform="translate(-265.7750361464791 54.80901783660771) scale(1) translate(906.872491305362 262.38831669841454) rotate(-40.57278956121489) translate(0 -7) translate(0 0) translate(-35.15185546875 0)" x="0" y="0" width="70.3037109375" height="14" rx="2" ry="2" fill="#ffffff" stroke="none"></rect><text xml:space="preserve" transform="translate(-265.7750361464791 54.80901783660771) scale(1) translate(906.872491305362 262.38831669841454) rotate(-40.57278956121489) translate(0 -7) translate(0 0) translate(-35.15185546875 0)" x="2" y="9.5" font-family="sans-serif" font-size="10" font-weight="normal" text-anchor="left" fill="#000000">DATA_FLOWS</text><path transform="translate(-265.7750361464791 54.80901783660771) scale(1) translate(1253.4349692269134 669.5575504514799) rotate(176.5348626669938)" d="M 30.48076945658987 -9.74282778941608 L 45.67960767877214 -14.600961820737334 A 40 40 0 0 1 57.85814241554224 -16.5 L 259.7452469264093 -16.5 L 463.1503985516088 -16.5 A 40 40 0 0 1 475.70856196140676 -14.477526667396496 L 481.0857200104139 -12.699442748158168 L 481.0857200104139 -12.699442748158168" fill="none" stroke="#999999" stroke-width="1"></path><polygon transform="translate(-265.7750361464791 54.80901783660771) scale(1) translate(1253.4349692269134 669.5575504514799) rotate(176.5348626669938) translate(519.4904938528186 0) rotate(18.297684425145647) translate(-31 0)" points="-9.45,0 -10.5,3.5 0,0 -10.5,-3.5" fill="#999999" stroke="none" stroke-width="1"></polygon><rect transform="translate(-265.7750361464791 54.80901783660771) scale(1) translate(994.6627928508747 701.7569181688136) rotate(356.5348626669937) translate(0 -7) translate(0 0) translate(-35.15185546875 0)" x="0" y="0" width="70.3037109375" height="14" rx="2" ry="2" fill="#ffffff" stroke="none"></rect><text xml:space="preserve" transform="translate(-265.7750361464791 54.80901783660771) scale(1) translate(994.6627928508747 701.7569181688136) rotate(356.5348626669937) translate(0 -7) translate(0 0) translate(-35.15185546875 0)" x="2" y="9.5" font-family="sans-serif" font-size="10" font-weight="normal" text-anchor="left" fill="#000000">DATA_FLOWS</text><path transform="translate(-265.7750361464791 54.80901783660771) scale(1) translate(734.8942288041329 700.9561766195152) rotate(-3.4651373330062154)" d="M 29.432583167232284 -9.732576642593404 L 43.7819318914119 -14.477526667396498 A 40 40 0 0 1 56.340095301209836 -16.5 L 259.7452469264093 -16.5 L 461.6323514372764 -16.5 A 40 40 0 0 1 473.81088617404646 -14.600961820737345 L 480.0083721660796 -12.620006620978016 L 480.0083721660796 -12.620006620978016" fill="none" stroke="#999999" stroke-width="1"></path><polygon transform="translate(-265.7750361464791 54.80901783660771) scale(1) translate(734.8942288041329 700.9561766195152) rotate(-3.4651373330062154) translate(519.4904938528186 0) rotate(17.725881786859844) translate(-32 0)" points="-9.45,0 -10.5,3.5 0,0 -10.5,-3.5" fill="#999999" stroke="none" stroke-width="1"></polygon><rect transform="translate(-265.7750361464791 54.80901783660771) scale(1) translate(992.6682334204211 668.8172500970436) rotate(-3.4651373330062154) translate(0 -7) translate(0 0) translate(-35.15185546875 0)" x="0" y="0" width="70.3037109375" height="14" rx="2" ry="2" fill="#ffffff" stroke="none"></rect><text xml:space="preserve" transform="translate(-265.7750361464791 54.80901783660771) scale(1) translate(992.6682334204211 668.8172500970436) rotate(-3.4651373330062154) translate(0 -7) translate(0 0) translate(-35.15185546875 0)" x="2" y="9.5" font-family="sans-serif" font-size="10" font-weight="normal" text-anchor="left" fill="#000000">DATA_FLOWS</text><path transform="translate(-265.7750361464791 54.80901783660771) scale(1) translate(1253.4349692269134 669.5575504514799) rotate(-101.14110378033081)" d="M 32 0 L 572.467498539979 0" fill="none" stroke="#999999" stroke-width="1"></path><polygon transform="translate(-265.7750361464791 54.80901783660771) scale(1) translate(1253.4349692269134 669.5575504514799) rotate(-101.14110378033081) translate(581.9174985399791 0) rotate(0)" points="-9.45,0 -10.5,3.5 0,0 -10.5,-3.5" fill="undefined" stroke="none" stroke-width="1"></polygon><rect transform="translate(-265.7750361464791 54.80901783660771) scale(1) translate(1195.0355832345945 373.0196086741838) rotate(78.85889621966919) translate(0 -7) translate(0 0) translate(-35.15185546875 0)" x="0" y="0" width="70.3037109375" height="14" rx="2" ry="2" fill="#ffffff" stroke="none"></rect><text xml:space="preserve" transform="translate(-265.7750361464791 54.80901783660771) scale(1) translate(1195.0355832345945 373.0196086741838) rotate(78.85889621966919) translate(0 -7) translate(0 0) translate(-35.15185546875 0)" x="2" y="9.5" font-family="sans-serif" font-size="10" font-weight="normal" text-anchor="left" fill="#000000">DATA_FLOWS</text><circle transform="translate(-265.7750361464791 54.80901783660771) scale(1)" cx="734.8942288041329" cy="700.9561766195152" r="30.5" fill="#4C8EDA" stroke="#2870c2" strokewidth="1"></circle><text xml:space="preserve" transform="translate(-265.7750361464791 54.80901783660771) scale(1) translate(734.8942288041329 700.9561766195152) scale(1) translate(0 0) translate(0 0)" x="0" y="2.5" font-family="sans-serif" font-size="10" font-weight="normal" text-anchor="middle" fill="#ffffff">System</text><rect transform="translate(-265.7750361464791 54.80901783660771) scale(1) translate(734.8942288041329 700.9561766195152) translate(21.920310216782976 21.920310216782973) translate(0 0) translate(0 0)" x="0" y="0" width="250.1806640625" height="129.6" rx="0" ry="0" fill="white" stroke="none"></rect><text xml:space="preserve" transform="translate(-265.7750361464791 54.80901783660771) scale(1) translate(734.8942288041329 700.9561766195152) translate(21.920310216782976 21.920310216782973) translate(0 0) translate(0 0)" x="67.03857421875" y="7.8999999999999995" font-family="sans-serif" font-size="9" font-weight="normal" text-anchor="end" fill="#000000">abrv_nme:</text><text xml:space="preserve" transform="translate(-265.7750361464791 54.80901783660771) scale(1) translate(734.8942288041329 700.9561766195152) translate(21.920310216782976 21.920310216782973) translate(0 0) translate(0 0)" x="69.5390625" y="7.8999999999999995" font-family="sans-serif" font-size="9" font-weight="normal" text-anchor="start" fill="#000000">"Abbreviated Name"</text><text xml:space="preserve" transform="translate(-265.7750361464791 54.80901783660771) scale(1) translate(734.8942288041329 700.9561766195152) translate(21.920310216782976 21.920310216782973) translate(0 0) translate(0 0)" x="67.03857421875" y="18.7" font-family="sans-serif" font-size="9" font-weight="normal" text-anchor="end" fill="#000000">frml_nme:</text><text xml:space="preserve" transform="translate(-265.7750361464791 54.80901783660771) scale(1) translate(734.8942288041329 700.9561766195152) translate(21.920310216782976 21.920310216782973) translate(0 0) translate(0 0)" x="69.5390625" y="18.7" font-family="sans-serif" font-size="9" font-weight="normal" text-anchor="start" fill="#000000">"Formal Name"</text><text xml:space="preserve" transform="translate(-265.7750361464791 54.80901783660771) scale(1) translate(734.8942288041329 700.9561766195152) translate(21.920310216782976 21.920310216782973) translate(0 0) translate(0 0)" x="67.03857421875" y="29.499999999999996" font-family="sans-serif" font-size="9" font-weight="normal" text-anchor="end" fill="#000000">desc:</text><text xml:space="preserve" transform="translate(-265.7750361464791 54.80901783660771) scale(1) translate(734.8942288041329 700.9561766195152) translate(21.920310216782976 21.920310216782973) translate(0 0) translate(0 0)" x="69.5390625" y="29.499999999999996" font-family="sans-serif" font-size="9" font-weight="normal" text-anchor="start" fill="#000000">"Description"</text><text xml:space="preserve" transform="translate(-265.7750361464791 54.80901783660771) scale(1) translate(734.8942288041329 700.9561766195152) translate(21.920310216782976 21.920310216782973) translate(0 0) translate(0 0)" x="67.03857421875" y="40.3" font-family="sans-serif" font-size="9" font-weight="normal" text-anchor="end" fill="#000000">db_indc:</text><text xml:space="preserve" transform="translate(-265.7750361464791 54.80901783660771) scale(1) translate(734.8942288041329 700.9561766195152) translate(21.920310216782976 21.920310216782973) translate(0 0) translate(0 0)" x="69.5390625" y="40.3" font-family="sans-serif" font-size="9" font-weight="normal" text-anchor="start" fill="#000000">"Database Indicator (Yes|No|Unknown)"</text><text xml:space="preserve" transform="translate(-265.7750361464791 54.80901783660771) scale(1) translate(734.8942288041329 700.9561766195152) translate(21.920310216782976 21.920310216782973) translate(0 0) translate(0 0)" x="67.03857421875" y="51.099999999999994" font-family="sans-serif" font-size="9" font-weight="normal" text-anchor="end" fill="#000000">data_ctr_city:</text><text xml:space="preserve" transform="translate(-265.7750361464791 54.80901783660771) scale(1) translate(734.8942288041329 700.9561766195152) translate(21.920310216782976 21.920310216782973) translate(0 0) translate(0 0)" x="69.5390625" y="51.099999999999994" font-family="sans-serif" font-size="9" font-weight="normal" text-anchor="start" fill="#000000">"Data Center City"</text><text xml:space="preserve" transform="translate(-265.7750361464791 54.80901783660771) scale(1) translate(734.8942288041329 700.9561766195152) translate(21.920310216782976 21.920310216782973) translate(0 0) translate(0 0)" x="67.03857421875" y="61.89999999999999" font-family="sans-serif" font-size="9" font-weight="normal" text-anchor="end" fill="#000000">prim_data_catg:</text><text xml:space="preserve" transform="translate(-265.7750361464791 54.80901783660771) scale(1) translate(734.8942288041329 700.9561766195152) translate(21.920310216782976 21.920310216782973) translate(0 0) translate(0 0)" x="69.5390625" y="61.89999999999999" font-family="sans-serif" font-size="9" font-weight="normal" text-anchor="start" fill="#000000">"Primary Category"</text><text xml:space="preserve" transform="translate(-265.7750361464791 54.80901783660771) scale(1) translate(734.8942288041329 700.9561766195152) translate(21.920310216782976 21.920310216782973) translate(0 0) translate(0 0)" x="67.03857421875" y="72.69999999999999" font-family="sans-serif" font-size="9" font-weight="normal" text-anchor="end" fill="#000000">locn_ctry:</text><text xml:space="preserve" transform="translate(-265.7750361464791 54.80901783660771) scale(1) translate(734.8942288041329 700.9561766195152) translate(21.920310216782976 21.920310216782973) translate(0 0) translate(0 0)" x="69.5390625" y="72.69999999999999" font-family="sans-serif" font-size="9" font-weight="normal" text-anchor="start" fill="#000000">"Located Country"</text><text xml:space="preserve" transform="translate(-265.7750361464791 54.80901783660771) scale(1) translate(734.8942288041329 700.9561766195152) translate(21.920310216782976 21.920310216782973) translate(0 0) translate(0 0)" x="67.03857421875" y="83.49999999999999" font-family="sans-serif" font-size="9" font-weight="normal" text-anchor="end" fill="#000000">mkt_cvrg:</text><text xml:space="preserve" transform="translate(-265.7750361464791 54.80901783660771) scale(1) translate(734.8942288041329 700.9561766195152) translate(21.920310216782976 21.920310216782973) translate(0 0) translate(0 0)" x="69.5390625" y="83.49999999999999" font-family="sans-serif" font-size="9" font-weight="normal" text-anchor="start" fill="#000000">"Market Coverage"</text><text xml:space="preserve" transform="translate(-265.7750361464791 54.80901783660771) scale(1) translate(734.8942288041329 700.9561766195152) translate(21.920310216782976 21.920310216782973) translate(0 0) translate(0 0)" x="67.03857421875" y="94.3" font-family="sans-serif" font-size="9" font-weight="normal" text-anchor="end" fill="#000000">con_sme:</text><text xml:space="preserve" transform="translate(-265.7750361464791 54.80901783660771) scale(1) translate(734.8942288041329 700.9561766195152) translate(21.920310216782976 21.920310216782973) translate(0 0) translate(0 0)" x="69.5390625" y="94.3" font-family="sans-serif" font-size="9" font-weight="normal" text-anchor="start" fill="#000000">"Content SME"</text><text xml:space="preserve" transform="translate(-265.7750361464791 54.80901783660771) scale(1) translate(734.8942288041329 700.9561766195152) translate(21.920310216782976 21.920310216782973) translate(0 0) translate(0 0)" x="67.03857421875" y="105.1" font-family="sans-serif" font-size="9" font-weight="normal" text-anchor="end" fill="#000000">prod_sme:</text><text xml:space="preserve" transform="translate(-265.7750361464791 54.80901783660771) scale(1) translate(734.8942288041329 700.9561766195152) translate(21.920310216782976 21.920310216782973) translate(0 0) translate(0 0)" x="69.5390625" y="105.1" font-family="sans-serif" font-size="9" font-weight="normal" text-anchor="start" fill="#000000">"Product SME"</text><text xml:space="preserve" transform="translate(-265.7750361464791 54.80901783660771) scale(1) translate(734.8942288041329 700.9561766195152) translate(21.920310216782976 21.920310216782973) translate(0 0) translate(0 0)" x="67.03857421875" y="115.89999999999999" font-family="sans-serif" font-size="9" font-weight="normal" text-anchor="end" fill="#000000">cld_indc:</text><text xml:space="preserve" transform="translate(-265.7750361464791 54.80901783660771) scale(1) translate(734.8942288041329 700.9561766195152) translate(21.920310216782976 21.920310216782973) translate(0 0) translate(0 0)" x="69.5390625" y="115.89999999999999" font-family="sans-serif" font-size="9" font-weight="normal" text-anchor="start" fill="#000000">"Cloud Hosted Indicator" (Yes/No/Unknown))</text><text xml:space="preserve" transform="translate(-265.7750361464791 54.80901783660771) scale(1) translate(734.8942288041329 700.9561766195152) translate(21.920310216782976 21.920310216782973) translate(0 0) translate(0 0)" x="67.03857421875" y="126.69999999999999" font-family="sans-serif" font-size="9" font-weight="normal" text-anchor="end" fill="#000000">cld_prvdr:</text><text xml:space="preserve" transform="translate(-265.7750361464791 54.80901783660771) scale(1) translate(734.8942288041329 700.9561766195152) translate(21.920310216782976 21.920310216782973) translate(0 0) translate(0 0)" x="69.5390625" y="126.69999999999999" font-family="sans-serif" font-size="9" font-weight="normal" text-anchor="start" fill="#000000">"Cloud Provider"</text><circle transform="translate(-265.7750361464791 54.80901783660771) scale(1)" cx="386.36098059983703" cy="455.8784348924188" r="31" fill="#4C8EDA" stroke="#2870c2" strokewidth="2"></circle><text xml:space="preserve" transform="translate(-265.7750361464791 54.80901783660771) scale(1) translate(386.36098059983703 455.8784348924188) scale(1) translate(0 0) translate(0 0)" x="0" y="2.5" font-family="sans-serif" font-size="10" font-weight="normal" text-anchor="middle" fill="#ffffff">Service</text><rect transform="translate(-265.7750361464791 54.80901783660771) scale(1) translate(386.36098059983703 455.8784348924188) translate(1.959434878635765e-15 -86) translate(0 0) translate(-65.476318359375 0)" x="0" y="0" width="130.95263671875" height="53.99999999999999" rx="0" ry="0" fill="white" stroke="none"></rect><text xml:space="preserve" transform="translate(-265.7750361464791 54.80901783660771) scale(1) translate(386.36098059983703 455.8784348924188) translate(1.959434878635765e-15 -86) translate(0 0) translate(-65.476318359375 0)" x="45.02197265625" y="7.8999999999999995" font-family="sans-serif" font-size="9" font-weight="normal" text-anchor="end" fill="#000000">abrv_nme:</text><text xml:space="preserve" transform="translate(-265.7750361464791 54.80901783660771) scale(1) translate(386.36098059983703 455.8784348924188) translate(1.959434878635765e-15 -86) translate(0 0) translate(-65.476318359375 0)" x="47.5224609375" y="7.8999999999999995" font-family="sans-serif" font-size="9" font-weight="normal" text-anchor="start" fill="#000000">"Abbreviated Name"</text><text xml:space="preserve" transform="translate(-265.7750361464791 54.80901783660771) scale(1) translate(386.36098059983703 455.8784348924188) translate(1.959434878635765e-15 -86) translate(0 0) translate(-65.476318359375 0)" x="45.02197265625" y="18.7" font-family="sans-serif" font-size="9" font-weight="normal" text-anchor="end" fill="#000000">frml_nme:</text><text xml:space="preserve" transform="translate(-265.7750361464791 54.80901783660771) scale(1) translate(386.36098059983703 455.8784348924188) translate(1.959434878635765e-15 -86) translate(0 0) translate(-65.476318359375 0)" x="47.5224609375" y="18.7" font-family="sans-serif" font-size="9" font-weight="normal" text-anchor="start" fill="#000000">"Formal Name"</text><text xml:space="preserve" transform="translate(-265.7750361464791 54.80901783660771) scale(1) translate(386.36098059983703 455.8784348924188) translate(1.959434878635765e-15 -86) translate(0 0) translate(-65.476318359375 0)" x="45.02197265625" y="29.499999999999996" font-family="sans-serif" font-size="9" font-weight="normal" text-anchor="end" fill="#000000">intrf_adr:</text><text xml:space="preserve" transform="translate(-265.7750361464791 54.80901783660771) scale(1) translate(386.36098059983703 455.8784348924188) translate(1.959434878635765e-15 -86) translate(0 0) translate(-65.476318359375 0)" x="47.5224609375" y="29.499999999999996" font-family="sans-serif" font-size="9" font-weight="normal" text-anchor="start" fill="#000000">"Interface Address"</text><text xml:space="preserve" transform="translate(-265.7750361464791 54.80901783660771) scale(1) translate(386.36098059983703 455.8784348924188) translate(1.959434878635765e-15 -86) translate(0 0) translate(-65.476318359375 0)" x="45.02197265625" y="40.3" font-family="sans-serif" font-size="9" font-weight="normal" text-anchor="end" fill="#000000">ctac:</text><text xml:space="preserve" transform="translate(-265.7750361464791 54.80901783660771) scale(1) translate(386.36098059983703 455.8784348924188) translate(1.959434878635765e-15 -86) translate(0 0) translate(-65.476318359375 0)" x="47.5224609375" y="40.3" font-family="sans-serif" font-size="9" font-weight="normal" text-anchor="start" fill="#000000">"Contact"</text><text xml:space="preserve" transform="translate(-265.7750361464791 54.80901783660771) scale(1) translate(386.36098059983703 455.8784348924188) translate(1.959434878635765e-15 -86) translate(0 0) translate(-65.476318359375 0)" x="45.02197265625" y="51.099999999999994" font-family="sans-serif" font-size="9" font-weight="normal" text-anchor="end" fill="#000000">api_typ:</text><text xml:space="preserve" transform="translate(-265.7750361464791 54.80901783660771) scale(1) translate(386.36098059983703 455.8784348924188) translate(1.959434878635765e-15 -86) translate(0 0) translate(-65.476318359375 0)" x="47.5224609375" y="51.099999999999994" font-family="sans-serif" font-size="9" font-weight="normal" text-anchor="start" fill="#000000">"API Type"</text><circle transform="translate(-265.7750361464791 54.80901783660771) scale(1)" cx="1134.810212556712" cy="67.20975879078088" r="31" fill="#4C8EDA" stroke="#2870c2" strokewidth="2"></circle><text xml:space="preserve" transform="translate(-265.7750361464791 54.80901783660771) scale(1) translate(1134.810212556712 67.20975879078088) scale(1) translate(0 0) translate(0 0)" x="0" y="2.5" font-family="sans-serif" font-size="10" font-weight="normal" text-anchor="middle" fill="#ffffff">Product</text><rect transform="translate(-265.7750361464791 54.80901783660771) scale(1) translate(1134.810212556712 67.20975879078088) translate(22.627416997969522 22.62741699796952) translate(0 0) translate(0 0)" x="0" y="0" width="130.95263671875" height="32.4" rx="0" ry="0" fill="white" stroke="none"></rect><text xml:space="preserve" transform="translate(-265.7750361464791 54.80901783660771) scale(1) translate(1134.810212556712 67.20975879078088) translate(22.627416997969522 22.62741699796952) translate(0 0) translate(0 0)" x="45.02197265625" y="7.8999999999999995" font-family="sans-serif" font-size="9" font-weight="normal" text-anchor="end" fill="#000000">abrv_nme:</text><text xml:space="preserve" transform="translate(-265.7750361464791 54.80901783660771) scale(1) translate(1134.810212556712 67.20975879078088) translate(22.627416997969522 22.62741699796952) translate(0 0) translate(0 0)" x="47.5224609375" y="7.8999999999999995" font-family="sans-serif" font-size="9" font-weight="normal" text-anchor="start" fill="#000000">"Abbreviated Name"</text><text xml:space="preserve" transform="translate(-265.7750361464791 54.80901783660771) scale(1) translate(1134.810212556712 67.20975879078088) translate(22.627416997969522 22.62741699796952) translate(0 0) translate(0 0)" x="45.02197265625" y="18.7" font-family="sans-serif" font-size="9" font-weight="normal" text-anchor="end" fill="#000000">frml_nme:</text><text xml:space="preserve" transform="translate(-265.7750361464791 54.80901783660771) scale(1) translate(1134.810212556712 67.20975879078088) translate(22.627416997969522 22.62741699796952) translate(0 0) translate(0 0)" x="47.5224609375" y="18.7" font-family="sans-serif" font-size="9" font-weight="normal" text-anchor="start" fill="#000000">"Formal Name"</text><text xml:space="preserve" transform="translate(-265.7750361464791 54.80901783660771) scale(1) translate(1134.810212556712 67.20975879078088) translate(22.627416997969522 22.62741699796952) translate(0 0) translate(0 0)" x="45.02197265625" y="29.499999999999996" font-family="sans-serif" font-size="9" font-weight="normal" text-anchor="end" fill="#000000">prod_fetr:</text><text xml:space="preserve" transform="translate(-265.7750361464791 54.80901783660771) scale(1) translate(1134.810212556712 67.20975879078088) translate(22.627416997969522 22.62741699796952) translate(0 0) translate(0 0)" x="47.5224609375" y="29.499999999999996" font-family="sans-serif" font-size="9" font-weight="normal" text-anchor="start" fill="#000000">"Product Features"</text><circle transform="translate(-265.7750361464791 54.80901783660771) scale(1)" cx="1161.1990928750552" cy="552.3048780764647" r="31" fill="#4C8EDA" stroke="#2870c2" strokewidth="2"></circle><text xml:space="preserve" transform="translate(-265.7750361464791 54.80901783660771) scale(1) translate(1161.1990928750552 552.3048780764647) scale(1) translate(0 0) translate(0 0)" x="0" y="2.5" font-family="sans-serif" font-size="10" font-weight="normal" text-anchor="middle" fill="#ffffff">Customer</text><rect transform="translate(-265.7750361464791 54.80901783660771) scale(1) translate(1161.1990928750552 552.3048780764647) translate(22.627416997969522 22.62741699796952) translate(0 0) translate(0 0)" x="0" y="0" width="130.95263671875" height="21.599999999999998" rx="0" ry="0" fill="white" stroke="none"></rect><text xml:space="preserve" transform="translate(-265.7750361464791 54.80901783660771) scale(1) translate(1161.1990928750552 552.3048780764647) translate(22.627416997969522 22.62741699796952) translate(0 0) translate(0 0)" x="45.02197265625" y="7.8999999999999995" font-family="sans-serif" font-size="9" font-weight="normal" text-anchor="end" fill="#000000">abrv_nme:</text><text xml:space="preserve" transform="translate(-265.7750361464791 54.80901783660771) scale(1) translate(1161.1990928750552 552.3048780764647) translate(22.627416997969522 22.62741699796952) translate(0 0) translate(0 0)" x="47.5224609375" y="7.8999999999999995" font-family="sans-serif" font-size="9" font-weight="normal" text-anchor="start" fill="#000000">"Abbreviated Name"</text><text xml:space="preserve" transform="translate(-265.7750361464791 54.80901783660771) scale(1) translate(1161.1990928750552 552.3048780764647) translate(22.627416997969522 22.62741699796952) translate(0 0) translate(0 0)" x="45.02197265625" y="18.7" font-family="sans-serif" font-size="9" font-weight="normal" text-anchor="end" fill="#000000">frml_nme:</text><text xml:space="preserve" transform="translate(-265.7750361464791 54.80901783660771) scale(1) translate(1161.1990928750552 552.3048780764647) translate(22.627416997969522 22.62741699796952) translate(0 0) translate(0 0)" x="47.5224609375" y="18.7" font-family="sans-serif" font-size="9" font-weight="normal" text-anchor="start" fill="#000000">"Formal Name"</text><circle transform="translate(-265.7750361464791 54.80901783660771) scale(1)" cx="1061.298167443037" cy="451.4204664921367" r="31" fill="#4C8EDA" stroke="#2870c2" strokewidth="2"></circle><text xml:space="preserve" transform="translate(-265.7750361464791 54.80901783660771) scale(1) translate(1061.298167443037 451.4204664921367) scale(1) translate(0 0) translate(0 0)" x="0" y="2.5" font-family="sans-serif" font-size="10" font-weight="normal" text-anchor="middle" fill="#ffffff">Vendor</text><rect transform="translate(-265.7750361464791 54.80901783660771) scale(1) translate(1061.298167443037 451.4204664921367) translate(22.627416997969522 22.62741699796952) translate(0 0) translate(0 0)" x="0" y="0" width="130.95263671875" height="21.599999999999998" rx="0" ry="0" fill="white" stroke="none"></rect><text xml:space="preserve" transform="translate(-265.7750361464791 54.80901783660771) scale(1) translate(1061.298167443037 451.4204664921367) translate(22.627416997969522 22.62741699796952) translate(0 0) translate(0 0)" x="45.02197265625" y="7.8999999999999995" font-family="sans-serif" font-size="9" font-weight="normal" text-anchor="end" fill="#000000">abrv_nme:</text><text xml:space="preserve" transform="translate(-265.7750361464791 54.80901783660771) scale(1) translate(1061.298167443037 451.4204664921367) translate(22.627416997969522 22.62741699796952) translate(0 0) translate(0 0)" x="47.5224609375" y="7.8999999999999995" font-family="sans-serif" font-size="9" font-weight="normal" text-anchor="start" fill="#000000">"Abbreviated Name"</text><text xml:space="preserve" transform="translate(-265.7750361464791 54.80901783660771) scale(1) translate(1061.298167443037 451.4204664921367) translate(22.627416997969522 22.62741699796952) translate(0 0) translate(0 0)" x="45.02197265625" y="18.7" font-family="sans-serif" font-size="9" font-weight="normal" text-anchor="end" fill="#000000">frml_nme:</text><text xml:space="preserve" transform="translate(-265.7750361464791 54.80901783660771) scale(1) translate(1061.298167443037 451.4204664921367) translate(22.627416997969522 22.62741699796952) translate(0 0) translate(0 0)" x="47.5224609375" y="18.7" font-family="sans-serif" font-size="9" font-weight="normal" text-anchor="start" fill="#000000">"Formal Name"</text><circle transform="translate(-265.7750361464791 54.80901783660771) scale(1)" cx="686.1128037191073" cy="451.4204664921367" r="31" fill="#4C8EDA" stroke="#2870c2" strokewidth="2"></circle><text xml:space="preserve" transform="translate(-265.7750361464791 54.80901783660771) scale(1) translate(686.1128037191073 451.4204664921367) scale(1) translate(0 0) translate(0 0)" x="0" y="2.5" font-family="sans-serif" font-size="10" font-weight="normal" text-anchor="middle" fill="#ffffff">Website</text><rect transform="translate(-265.7750361464791 54.80901783660771) scale(1) translate(686.1128037191073 451.4204664921367) translate(22.627416997969522 22.62741699796952) translate(0 0) translate(0 0)" x="0" y="0" width="130.95263671875" height="21.599999999999998" rx="0" ry="0" fill="white" stroke="none"></rect><text xml:space="preserve" transform="translate(-265.7750361464791 54.80901783660771) scale(1) translate(686.1128037191073 451.4204664921367) translate(22.627416997969522 22.62741699796952) translate(0 0) translate(0 0)" x="45.02197265625" y="7.8999999999999995" font-family="sans-serif" font-size="9" font-weight="normal" text-anchor="end" fill="#000000">abrv_nme:</text><text xml:space="preserve" transform="translate(-265.7750361464791 54.80901783660771) scale(1) translate(686.1128037191073 451.4204664921367) translate(22.627416997969522 22.62741699796952) translate(0 0) translate(0 0)" x="47.5224609375" y="7.8999999999999995" font-family="sans-serif" font-size="9" font-weight="normal" text-anchor="start" fill="#000000">"Abbreviated Name"</text><text xml:space="preserve" transform="translate(-265.7750361464791 54.80901783660771) scale(1) translate(686.1128037191073 451.4204664921367) translate(22.627416997969522 22.62741699796952) translate(0 0) translate(0 0)" x="45.02197265625" y="18.7" font-family="sans-serif" font-size="9" font-weight="normal" text-anchor="end" fill="#000000">frml_nme:</text><text xml:space="preserve" transform="translate(-265.7750361464791 54.80901783660771) scale(1) translate(686.1128037191073 451.4204664921367) translate(22.627416997969522 22.62741699796952) translate(0 0) translate(0 0)" x="47.5224609375" y="18.7" font-family="sans-serif" font-size="9" font-weight="normal" text-anchor="start" fill="#000000">"Formal Name"</text><circle transform="translate(-265.7750361464791 54.80901783660771) scale(1)" cx="1253.4349692269134" cy="669.5575504514799" r="31" fill="#4C8EDA" stroke="#2870c2" strokewidth="2"></circle><text xml:space="preserve" transform="translate(-265.7750361464791 54.80901783660771) scale(1) translate(1253.4349692269134 669.5575504514799) scale(0.9765625234374999) translate(0 0) translate(0 0)" x="0" y="2.5" font-family="sans-serif" font-size="10" font-weight="normal" text-anchor="middle" fill="#ffffff">UserInterface</text><rect transform="translate(-265.7750361464791 54.80901783660771) scale(1) translate(1253.4349692269134 669.5575504514799) translate(22.627416997969522 22.62741699796952) translate(0 0) translate(0 0)" x="0" y="0" width="130.95263671875" height="21.599999999999998" rx="0" ry="0" fill="white" stroke="none"></rect><text xml:space="preserve" transform="translate(-265.7750361464791 54.80901783660771) scale(1) translate(1253.4349692269134 669.5575504514799) translate(22.627416997969522 22.62741699796952) translate(0 0) translate(0 0)" x="45.02197265625" y="7.8999999999999995" font-family="sans-serif" font-size="9" font-weight="normal" text-anchor="end" fill="#000000">abrv_nme:</text><text xml:space="preserve" transform="translate(-265.7750361464791 54.80901783660771) scale(1) translate(1253.4349692269134 669.5575504514799) translate(22.627416997969522 22.62741699796952) translate(0 0) translate(0 0)" x="47.5224609375" y="7.8999999999999995" font-family="sans-serif" font-size="9" font-weight="normal" text-anchor="start" fill="#000000">"Abbreviated Name"</text><text xml:space="preserve" transform="translate(-265.7750361464791 54.80901783660771) scale(1) translate(1253.4349692269134 669.5575504514799) translate(22.627416997969522 22.62741699796952) translate(0 0) translate(0 0)" x="45.02197265625" y="18.7" font-family="sans-serif" font-size="9" font-weight="normal" text-anchor="end" fill="#000000">frml_nme:</text><text xml:space="preserve" transform="translate(-265.7750361464791 54.80901783660771) scale(1) translate(1253.4349692269134 669.5575504514799) translate(22.627416997969522 22.62741699796952) translate(0 0) translate(0 0)" x="47.5224609375" y="18.7" font-family="sans-serif" font-size="9" font-weight="normal" text-anchor="start" fill="#000000">"Formal Name"</text></svg>